<mxfile host="65bd71144e">
    <diagram id="HLEe1l2swjp_es9oc19s" name="第 1 页">
        <mxGraphModel dx="932" dy="667" grid="1" gridSize="10" guides="1" tooltips="1" connect="1" arrows="1" fold="1" page="1" pageScale="1" pageWidth="1169" pageHeight="827" math="0" shadow="0">
            <root>
                <mxCell id="0"/>
                <mxCell id="1" parent="0"/>
                <mxCell id="14" style="edgeStyle=none;html=1;exitX=1;exitY=0.5;exitDx=0;exitDy=0;entryX=0;entryY=0.5;entryDx=0;entryDy=0;" edge="1" parent="1" source="2" target="9">
                    <mxGeometry relative="1" as="geometry"/>
                </mxCell>
                <mxCell id="68" style="edgeStyle=none;html=1;exitX=0;exitY=1;exitDx=0;exitDy=0;entryX=1;entryY=1;entryDx=0;entryDy=0;strokeColor=#FF0000;" edge="1" parent="1" source="2" target="24">
                    <mxGeometry relative="1" as="geometry"/>
                </mxCell>
                <mxCell id="69" style="edgeStyle=none;html=1;exitX=1;exitY=0;exitDx=0;exitDy=0;entryX=1;entryY=0.25;entryDx=0;entryDy=0;strokeColor=#FF0000;" edge="1" parent="1" source="2" target="25">
                    <mxGeometry relative="1" as="geometry"/>
                </mxCell>
                <mxCell id="2" value="dot" style="ellipse;whiteSpace=wrap;html=1;aspect=fixed;strokeColor=#FF9999;" vertex="1" parent="1">
                    <mxGeometry x="110" y="280" width="40" height="40" as="geometry"/>
                </mxCell>
                <mxCell id="23" style="edgeStyle=none;html=1;exitX=0;exitY=1;exitDx=0;exitDy=0;entryX=0.992;entryY=0.838;entryDx=0;entryDy=0;entryPerimeter=0;strokeColor=#FF0000;" edge="1" parent="1" source="9" target="2">
                    <mxGeometry relative="1" as="geometry"/>
                </mxCell>
                <mxCell id="65" style="edgeStyle=none;html=1;exitX=0;exitY=1;exitDx=0;exitDy=0;entryX=1;entryY=0.25;entryDx=0;entryDy=0;strokeColor=#FF0000;" edge="1" parent="1" source="9" target="26">
                    <mxGeometry relative="1" as="geometry">
                        <Array as="points">
                            <mxPoint x="200" y="400"/>
                        </Array>
                    </mxGeometry>
                </mxCell>
                <mxCell id="9" value="+" style="ellipse;whiteSpace=wrap;html=1;aspect=fixed;strokeColor=#FF9999;" vertex="1" parent="1">
                    <mxGeometry x="250" y="280" width="40" height="40" as="geometry"/>
                </mxCell>
                <mxCell id="22" style="edgeStyle=none;html=1;exitX=0;exitY=1;exitDx=0;exitDy=0;entryX=1;entryY=1;entryDx=0;entryDy=0;strokeColor=#FF0000;" edge="1" parent="1" source="10" target="9">
                    <mxGeometry relative="1" as="geometry"/>
                </mxCell>
                <mxCell id="72" style="edgeStyle=none;html=1;exitX=1;exitY=0.5;exitDx=0;exitDy=0;strokeColor=#66FFFF;" edge="1" parent="1" source="10">
                    <mxGeometry relative="1" as="geometry">
                        <mxPoint x="590" y="299.66666666666674" as="targetPoint"/>
                    </mxGeometry>
                </mxCell>
                <mxCell id="10" value="sig" style="ellipse;whiteSpace=wrap;html=1;aspect=fixed;strokeColor=#FF9999;" vertex="1" parent="1">
                    <mxGeometry x="430" y="280" width="40" height="40" as="geometry"/>
                </mxCell>
                <mxCell id="17" style="edgeStyle=none;html=1;exitX=1;exitY=0.5;exitDx=0;exitDy=0;entryX=0;entryY=0.5;entryDx=0;entryDy=0;" edge="1" parent="1" source="11" target="12">
                    <mxGeometry relative="1" as="geometry"/>
                </mxCell>
                <mxCell id="21" style="edgeStyle=none;html=1;exitX=0;exitY=1;exitDx=0;exitDy=0;entryX=1;entryY=1;entryDx=0;entryDy=0;strokeColor=#FF0000;" edge="1" parent="1" source="11" target="10">
                    <mxGeometry relative="1" as="geometry"/>
                </mxCell>
                <mxCell id="67" style="edgeStyle=none;html=1;exitX=1;exitY=0;exitDx=0;exitDy=0;entryX=1;entryY=0;entryDx=0;entryDy=0;strokeColor=#FF0000;" edge="1" parent="1" source="11" target="34">
                    <mxGeometry relative="1" as="geometry"/>
                </mxCell>
                <mxCell id="11" value="dot" style="ellipse;whiteSpace=wrap;html=1;aspect=fixed;strokeColor=#FF9999;" vertex="1" parent="1">
                    <mxGeometry x="595" y="280" width="40" height="40" as="geometry"/>
                </mxCell>
                <mxCell id="18" style="edgeStyle=none;html=1;exitX=1;exitY=0.5;exitDx=0;exitDy=0;entryX=0;entryY=0.5;entryDx=0;entryDy=0;" edge="1" parent="1" source="12" target="13">
                    <mxGeometry relative="1" as="geometry"/>
                </mxCell>
                <mxCell id="20" style="edgeStyle=none;html=1;exitX=0;exitY=1;exitDx=0;exitDy=0;entryX=1;entryY=1;entryDx=0;entryDy=0;strokeColor=#FF0000;" edge="1" parent="1" source="12" target="11">
                    <mxGeometry relative="1" as="geometry"/>
                </mxCell>
                <mxCell id="66" style="edgeStyle=none;html=1;exitX=0;exitY=1;exitDx=0;exitDy=0;entryX=1;entryY=0.25;entryDx=0;entryDy=0;strokeColor=#FF0000;" edge="1" parent="1" source="12" target="36">
                    <mxGeometry relative="1" as="geometry">
                        <Array as="points">
                            <mxPoint x="695" y="400"/>
                        </Array>
                    </mxGeometry>
                </mxCell>
                <mxCell id="12" value="+" style="ellipse;whiteSpace=wrap;html=1;aspect=fixed;strokeColor=#FF9999;" vertex="1" parent="1">
                    <mxGeometry x="705" y="280" width="40" height="40" as="geometry"/>
                </mxCell>
                <mxCell id="19" style="edgeStyle=none;html=1;exitX=0;exitY=1;exitDx=0;exitDy=0;entryX=1;entryY=1;entryDx=0;entryDy=0;strokeColor=#FF0000;" edge="1" parent="1" source="13" target="12">
                    <mxGeometry relative="1" as="geometry"/>
                </mxCell>
                <mxCell id="40" style="edgeStyle=none;html=1;exitX=1;exitY=0.5;exitDx=0;exitDy=0;" edge="1" parent="1" source="13">
                    <mxGeometry relative="1" as="geometry">
                        <mxPoint x="875" y="299.72413793103453" as="targetPoint"/>
                    </mxGeometry>
                </mxCell>
                <mxCell id="71" style="edgeStyle=none;html=1;exitX=1;exitY=0.5;exitDx=0;exitDy=0;strokeColor=#66FFFF;" edge="1" parent="1" source="13">
                    <mxGeometry relative="1" as="geometry">
                        <mxPoint x="995" y="300" as="targetPoint"/>
                    </mxGeometry>
                </mxCell>
                <mxCell id="13" value="soft" style="ellipse;whiteSpace=wrap;html=1;aspect=fixed;strokeColor=#FF9999;" vertex="1" parent="1">
                    <mxGeometry x="835" y="280" width="40" height="40" as="geometry"/>
                </mxCell>
                <mxCell id="28" style="edgeStyle=none;html=1;exitX=1;exitY=0.5;exitDx=0;exitDy=0;entryX=0;entryY=0.5;entryDx=0;entryDy=0;" edge="1" parent="1" source="24" target="2">
                    <mxGeometry relative="1" as="geometry"/>
                </mxCell>
                <mxCell id="24" value="X&lt;sub&gt;(s,i)&lt;/sub&gt;" style="whiteSpace=wrap;html=1;aspect=fixed;strokeColor=#99FFFF;" vertex="1" parent="1">
                    <mxGeometry x="10" y="285" width="30" height="30" as="geometry"/>
                </mxCell>
                <mxCell id="29" style="edgeStyle=none;html=1;exitX=1;exitY=0.5;exitDx=0;exitDy=0;entryX=0.5;entryY=0;entryDx=0;entryDy=0;" edge="1" parent="1" source="25" target="2">
                    <mxGeometry relative="1" as="geometry"/>
                </mxCell>
                <mxCell id="25" value="W1&lt;sub&gt;(i,h)&lt;/sub&gt;" style="whiteSpace=wrap;html=1;aspect=fixed;strokeColor=#66B2FF;" vertex="1" parent="1">
                    <mxGeometry x="10" y="140" width="40" height="40" as="geometry"/>
                </mxCell>
                <mxCell id="30" style="edgeStyle=none;html=1;exitX=1;exitY=0.5;exitDx=0;exitDy=0;entryX=0.5;entryY=1;entryDx=0;entryDy=0;strokeColor=#99FFFF;" edge="1" parent="1" source="26" target="9">
                    <mxGeometry relative="1" as="geometry">
                        <Array as="points">
                            <mxPoint x="210" y="410"/>
                        </Array>
                    </mxGeometry>
                </mxCell>
                <mxCell id="26" value="B1&lt;sub&gt;(,h)&lt;/sub&gt;" style="whiteSpace=wrap;html=1;aspect=fixed;strokeColor=#66B2FF;" vertex="1" parent="1">
                    <mxGeometry x="5" y="390" width="40" height="40" as="geometry"/>
                </mxCell>
                <mxCell id="31" value="XW1&lt;sub&gt;(s,h)&lt;/sub&gt;" style="rounded=0;whiteSpace=wrap;html=1;strokeColor=#66FFFF;" vertex="1" parent="1">
                    <mxGeometry x="160" y="245" width="60" height="30" as="geometry"/>
                </mxCell>
                <mxCell id="32" value="a1=XW1+B1&lt;br&gt;(s,h)" style="rounded=0;whiteSpace=wrap;html=1;strokeColor=#66FFFF;" vertex="1" parent="1">
                    <mxGeometry x="320" y="245" width="80" height="40" as="geometry"/>
                </mxCell>
                <mxCell id="33" value="Z1&lt;sub&gt;(s,h)&lt;/sub&gt;" style="rounded=0;whiteSpace=wrap;html=1;strokeColor=#66FFFF;" vertex="1" parent="1">
                    <mxGeometry x="505" y="245" width="50" height="30" as="geometry"/>
                </mxCell>
                <mxCell id="35" style="edgeStyle=none;html=1;exitX=1;exitY=0.5;exitDx=0;exitDy=0;entryX=0.5;entryY=0;entryDx=0;entryDy=0;" edge="1" parent="1" target="11">
                    <mxGeometry relative="1" as="geometry">
                        <mxPoint x="575" y="160.0000000000001" as="sourcePoint"/>
                    </mxGeometry>
                </mxCell>
                <mxCell id="34" value="W2&lt;sub&gt;(h,o)&lt;/sub&gt;" style="whiteSpace=wrap;html=1;aspect=fixed;strokeColor=#66B2FF;" vertex="1" parent="1">
                    <mxGeometry x="535" y="140" width="40" height="40" as="geometry"/>
                </mxCell>
                <mxCell id="45" style="edgeStyle=none;html=1;exitX=1;exitY=0.5;exitDx=0;exitDy=0;entryX=0.5;entryY=1;entryDx=0;entryDy=0;strokeColor=#66FFFF;" edge="1" parent="1" target="12">
                    <mxGeometry relative="1" as="geometry">
                        <mxPoint x="579" y="409.9999999999999" as="sourcePoint"/>
                        <Array as="points">
                            <mxPoint x="705" y="410"/>
                        </Array>
                    </mxGeometry>
                </mxCell>
                <mxCell id="36" value="B2&lt;sub&gt;(,o)&lt;/sub&gt;" style="whiteSpace=wrap;html=1;aspect=fixed;strokeColor=#66B2FF;" vertex="1" parent="1">
                    <mxGeometry x="539" y="390" width="40" height="40" as="geometry"/>
                </mxCell>
                <mxCell id="38" value="ZW2&lt;sub&gt;(s,o)&lt;/sub&gt;" style="rounded=0;whiteSpace=wrap;html=1;strokeColor=#66FFFF;" vertex="1" parent="1">
                    <mxGeometry x="645" y="255" width="60" height="30" as="geometry"/>
                </mxCell>
                <mxCell id="39" value="a2=ZW2+B2&lt;br&gt;(s,o)" style="rounded=0;whiteSpace=wrap;html=1;" vertex="1" parent="1">
                    <mxGeometry x="755" y="245" width="80" height="40" as="geometry"/>
                </mxCell>
                <mxCell id="41" value="Y&lt;sub&gt;(s,o)&lt;/sub&gt;" style="rounded=0;whiteSpace=wrap;html=1;strokeColor=#66FFFF;" vertex="1" parent="1">
                    <mxGeometry x="875" y="245" width="50" height="30" as="geometry"/>
                </mxCell>
                <mxCell id="43" value="dy=Y-t&lt;br&gt;(s,o)" style="rounded=0;whiteSpace=wrap;html=1;strokeColor=#FF0000;" vertex="1" parent="1">
                    <mxGeometry x="635" y="330" width="60" height="40" as="geometry"/>
                </mxCell>
                <mxCell id="44" value="dy=Y-t&lt;br&gt;(s,o)" style="rounded=0;whiteSpace=wrap;html=1;strokeColor=#FF0000;" vertex="1" parent="1">
                    <mxGeometry x="765" y="330" width="60" height="40" as="geometry"/>
                </mxCell>
                <mxCell id="46" value="dZ&lt;sub&gt;1&lt;/sub&gt;=dyW2&lt;sup&gt;T&lt;br&gt;(s,h)&lt;br&gt;&lt;/sup&gt;" style="rounded=0;whiteSpace=wrap;html=1;strokeColor=#FF0000;" vertex="1" parent="1">
                    <mxGeometry x="490" y="330" width="80" height="46" as="geometry"/>
                </mxCell>
                <mxCell id="48" value="Z1&lt;sup&gt;T&lt;/sup&gt;dy&lt;br&gt;(h,o)" style="rounded=0;whiteSpace=wrap;html=1;strokeColor=#FF0000;" vertex="1" parent="1">
                    <mxGeometry x="605" y="160" width="60" height="36" as="geometry"/>
                </mxCell>
                <mxCell id="49" value="da1=dZ1*Z1*(1-Z1)&lt;br&gt;（s,h）&lt;br&gt;注意是元素乘！" style="rounded=0;whiteSpace=wrap;html=1;strokeColor=#FF0000;" vertex="1" parent="1">
                    <mxGeometry x="305" y="325" width="110" height="50" as="geometry"/>
                </mxCell>
                <mxCell id="50" value="da1&lt;br&gt;(s,h)" style="rounded=0;whiteSpace=wrap;html=1;strokeColor=#FF0000;" vertex="1" parent="1">
                    <mxGeometry x="160" y="330" width="60" height="40" as="geometry"/>
                </mxCell>
                <mxCell id="51" value="X&lt;sup&gt;T&lt;/sup&gt;da1&lt;br&gt;(i,h)" style="rounded=0;whiteSpace=wrap;html=1;strokeColor=#FF0000;" vertex="1" parent="1">
                    <mxGeometry x="100" y="160" width="50" height="40" as="geometry"/>
                </mxCell>
                <mxCell id="52" value="da1W1&lt;sup&gt;T&lt;br&gt;(s,i)&lt;br&gt;&lt;/sup&gt;" style="rounded=0;whiteSpace=wrap;html=1;strokeColor=#FF0000;" vertex="1" parent="1">
                    <mxGeometry x="45" y="330" width="60" height="40" as="geometry"/>
                </mxCell>
                <mxCell id="53" value="简单双层网络的计算图，其中：&lt;br&gt;s:batch size . &lt;br&gt;i: 输入层神经元个数&lt;br&gt;h:隐藏层神经元个数&lt;br&gt;o:输出层神经元个数" style="rounded=0;whiteSpace=wrap;html=1;strokeColor=#99FFFF;" vertex="1" parent="1">
                    <mxGeometry x="110" y="10" width="180" height="90" as="geometry"/>
                </mxCell>
                <mxCell id="54" value="需要注意的点：&lt;br&gt;dL/dx的shape 与 dx的shape相同&lt;br&gt;sigmoid层反向传播时，全部为元素的乘法而非矩阵乘法" style="rounded=0;whiteSpace=wrap;html=1;strokeColor=#99FFFF;" vertex="1" parent="1">
                    <mxGeometry x="360" y="10" width="305" height="60" as="geometry"/>
                </mxCell>
                <mxCell id="55" style="edgeStyle=none;html=1;exitX=1;exitY=0.5;exitDx=0;exitDy=0;entryX=0;entryY=0.5;entryDx=0;entryDy=0;strokeColor=#66FFFF;" edge="1" parent="1">
                    <mxGeometry relative="1" as="geometry">
                        <mxPoint x="40" y="299.9999999999999" as="sourcePoint"/>
                        <mxPoint x="110.00000000000011" y="299.9999999999999" as="targetPoint"/>
                    </mxGeometry>
                </mxCell>
                <mxCell id="56" style="edgeStyle=none;html=1;exitX=1;exitY=0.5;exitDx=0;exitDy=0;entryX=0.5;entryY=0;entryDx=0;entryDy=0;strokeColor=#66FFFF;" edge="1" parent="1">
                    <mxGeometry relative="1" as="geometry">
                        <mxPoint x="50" y="160.0000000000001" as="sourcePoint"/>
                        <mxPoint x="130.0000000000001" y="279.9999999999999" as="targetPoint"/>
                    </mxGeometry>
                </mxCell>
                <mxCell id="58" style="edgeStyle=none;html=1;exitX=1;exitY=0.5;exitDx=0;exitDy=0;entryX=0;entryY=0.5;entryDx=0;entryDy=0;strokeColor=#66FFFF;" edge="1" parent="1">
                    <mxGeometry relative="1" as="geometry">
                        <mxPoint x="150.0000000000001" y="299.9999999999999" as="sourcePoint"/>
                        <mxPoint x="230.00000000000398" y="299.9999999999999" as="targetPoint"/>
                    </mxGeometry>
                </mxCell>
                <mxCell id="59" style="edgeStyle=none;html=1;entryX=0;entryY=0.5;entryDx=0;entryDy=0;strokeColor=#66FFFF;" edge="1" parent="1" target="10">
                    <mxGeometry relative="1" as="geometry">
                        <mxPoint x="290" y="300" as="sourcePoint"/>
                        <mxPoint x="370.0000000000041" y="299.9999999999999" as="targetPoint"/>
                    </mxGeometry>
                </mxCell>
                <mxCell id="61" style="edgeStyle=none;html=1;exitX=1;exitY=0.5;exitDx=0;exitDy=0;entryX=0;entryY=0.5;entryDx=0;entryDy=0;strokeColor=#66FFFF;" edge="1" parent="1">
                    <mxGeometry relative="1" as="geometry">
                        <mxPoint x="635" y="299.9999999999999" as="sourcePoint"/>
                        <mxPoint x="705" y="299.9999999999999" as="targetPoint"/>
                    </mxGeometry>
                </mxCell>
                <mxCell id="62" style="edgeStyle=none;html=1;exitX=1;exitY=0.5;exitDx=0;exitDy=0;entryX=0.5;entryY=0;entryDx=0;entryDy=0;strokeColor=#66FFFF;" edge="1" parent="1">
                    <mxGeometry relative="1" as="geometry">
                        <mxPoint x="575" y="160.0000000000001" as="sourcePoint"/>
                        <mxPoint x="615" y="279.9999999999999" as="targetPoint"/>
                    </mxGeometry>
                </mxCell>
                <mxCell id="63" style="edgeStyle=none;html=1;exitX=1;exitY=0.5;exitDx=0;exitDy=0;entryX=0;entryY=0.5;entryDx=0;entryDy=0;strokeColor=#66FFFF;" edge="1" parent="1">
                    <mxGeometry relative="1" as="geometry">
                        <mxPoint x="745" y="299.9999999999999" as="sourcePoint"/>
                        <mxPoint x="834.9999999999918" y="299.9999999999999" as="targetPoint"/>
                    </mxGeometry>
                </mxCell>
                <mxCell id="64" value="a2=ZW2+B2&lt;br&gt;(s,o)" style="rounded=0;whiteSpace=wrap;html=1;strokeColor=#66FFFF;" vertex="1" parent="1">
                    <mxGeometry x="755" y="245" width="80" height="40" as="geometry"/>
                </mxCell>
            </root>
        </mxGraphModel>
    </diagram>
</mxfile>